<svg xmlns="http://www.w3.org/2000/svg" viewBox="0 0 1129.5 1127"><defs><style>.cls-1{opacity:0.4;}.cls-2,.cls-3{fill:none;stroke:#26374d;stroke-miterlimit:10;}.cls-3{stroke-width:6px;}</style></defs><title>Ресурс 12</title><g id="Слой_2" data-name="Слой 2"><g id="Слой_1-2" data-name="Слой 1"><g class="cls-1"><circle class="cls-2" cx="566" cy="563.5" r="395"/><circle class="cls-2" cx="566" cy="563.5" r="308.5"/><circle class="cls-2" cx="566" cy="563.5" r="355.5"/><circle class="cls-2" cx="566" cy="563.5" r="563"/><circle class="cls-2" cx="566" cy="563.5" r="439.71"/><circle class="cls-2" cx="566" cy="563.5" r="506.7"/><path class="cls-3" d="M180.42,649.65A397.13,397.13,0,0,1,202,409.75"/><path class="cls-3" d="M202,409.75C262,268,402.39,168.5,566,168.5c140.61,0,264,73.47,334,184.11"/><path class="cls-3" d="M272.12,657.6a309,309,0,0,1,60.62-296"/><path class="cls-3" d="M836,414.13a306.3,306.3,0,0,1,36.65,115.32"/><path class="cls-3" d="M260.79,381.12A357.2,357.2,0,0,1,352.14,279.5"/><path class="cls-3" d="M908,466.11a356,356,0,0,1,13.5,97.39C921.5,759.84,762.34,919,566,919a358.6,358.6,0,0,1-53.9-4.06"/><path class="cls-3" d="M52.13,793.85A560.94,560.94,0,0,1,3,563.5C3,324.08,152.45,119.56,363.15,38.15"/><path class="cls-3" d="M719.55,975.65A438.7,438.7,0,0,1,566,1003.21c-242.85,0-439.71-196.86-439.71-439.71a444.3,444.3,0,0,1,2.24-44.61"/><path class="cls-3" d="M498.47,128.94A443.48,443.48,0,0,1,566,123.79,437.75,437.75,0,0,1,824.83,208"/><path class="cls-3" d="M282.34,983.42c-114.81-77.7-196-201.26-217.45-344.37"/><path class="cls-3" d="M710.71,77.77c133.8,39.8,244.45,133.38,306.88,255.68"/></g></g></g></svg>