<svg xmlns="http://www.w3.org/2000/svg" xmlns:xlink="http://www.w3.org/1999/xlink" viewBox="0 0 180.28 40"><defs><style>.cls-1,.cls-2{fill:none;}.cls-2{stroke:#7193bd;stroke-miterlimit:10;stroke-width:2px;}.cls-3,.cls-4{opacity:0.8;}.cls-4{fill:#990046;}.cls-5{fill:#8aa1bd;}.cls-6{fill:url(#Новый_образец_узора_1);}.cls-7{fill:url(#Новый_образец_узора_1-3);}.cls-8{opacity:0.83;}</style><pattern id="Новый_образец_узора_1" data-name="Новый образец узора 1" width="7" height="7" patternTransform="translate(21.99 13.62) scale(0.55)" patternUnits="userSpaceOnUse" viewBox="0 0 7 7"><rect class="cls-1" width="7" height="7"/><line class="cls-2" x1="15.5" y1="5.5" x2="5.5" y2="15.5"/><line class="cls-2" x1="8.5" y1="5.5" x2="-1.5" y2="15.5"/><line class="cls-2" x1="1.5" y1="5.5" x2="-8.5" y2="15.5"/><line class="cls-2" x1="15.5" y1="-1.5" x2="5.5" y2="8.5"/><line class="cls-2" x1="8.5" y1="-1.5" x2="-1.5" y2="8.5"/><line class="cls-2" x1="1.5" y1="-1.5" x2="-8.5" y2="8.5"/><line class="cls-2" x1="15.5" y1="-8.5" x2="5.5" y2="1.5"/><line class="cls-2" x1="8.5" y1="-8.5" x2="-1.5" y2="1.5"/><line class="cls-2" x1="1.5" y1="-8.5" x2="-8.5" y2="1.5"/></pattern><pattern id="Новый_образец_узора_1-3" data-name="Новый образец узора 1" width="7" height="7" patternTransform="translate(23.69 13.62) scale(0.55)" patternUnits="userSpaceOnUse" viewBox="0 0 7 7"><rect class="cls-1" width="7" height="7"/><line class="cls-2" x1="15.5" y1="5.5" x2="5.5" y2="15.5"/><line class="cls-2" x1="8.5" y1="5.5" x2="-1.5" y2="15.5"/><line class="cls-2" x1="1.5" y1="5.5" x2="-8.5" y2="15.5"/><line class="cls-2" x1="15.5" y1="-1.5" x2="5.5" y2="8.5"/><line class="cls-2" x1="8.5" y1="-1.5" x2="-1.5" y2="8.5"/><line class="cls-2" x1="1.5" y1="-1.5" x2="-8.5" y2="8.5"/><line class="cls-2" x1="15.5" y1="-8.5" x2="5.5" y2="1.5"/><line class="cls-2" x1="8.5" y1="-8.5" x2="-1.5" y2="1.5"/><line class="cls-2" x1="1.5" y1="-8.5" x2="-8.5" y2="1.5"/></pattern></defs><title>Ресурс 3</title><g id="Слой_2" data-name="Слой 2"><g id="Слой_1-2" data-name="Слой 1"><g class="cls-3"><path class="cls-4" d="M27.69,20.76q0-8.57-4.88-13.3Q18.51,3.29,11.16,2.8V7.89Q21.35,9,21.35,21q0,11.81-10.19,13.27v5.12q7.28-.68,11.47-4.68Q27.69,29.87,27.69,20.76Z"/><path class="cls-1" d="M23.56,18.76q0-12-10.2-13.08V32Q23.56,30.56,23.56,18.76Z"/><path class="cls-1" d="M6,5.56V32.23h4.27a21.25,21.25,0,0,0,3.08-.2V5.68a20.79,20.79,0,0,0-2.15-.12Z"/><path class="cls-5" d="M29.9,18.56Q29.9,10,25,5.26,20.71,1.08,13.36.6V5.68q10.18,1.1,10.2,13.08,0,11.8-10.2,13.27v5.12q7.28-.67,11.48-4.68Q29.9,27.66,29.9,18.56Z"/><path class="cls-6" d="M10.28,32.23H6V5.56h5.2a20.79,20.79,0,0,1,2.15.12V.6c-.64,0-1.31-.07-2-.07H0V37.29H10.28c1.07,0,2.1,0,3.08-.14V32A21.25,21.25,0,0,1,10.28,32.23Z"/><path class="cls-4" d="M84.76,9.42l1.91-4.9a26.48,26.48,0,0,0-7.84-2.16V7.62A27.2,27.2,0,0,1,84.76,9.42Z"/><path class="cls-4" d="M86.35,25.19a9.26,9.26,0,0,0-2.77-3.29,23.72,23.72,0,0,0-4.75-2.64v6.49a7.15,7.15,0,0,1,.88.67,4.58,4.58,0,0,1,1.56,3.5,4.42,4.42,0,0,1-1.7,3.64,4.24,4.24,0,0,1-.74.47v5.42a12.27,12.27,0,0,0,4.85-2.24,9.24,9.24,0,0,0,3.55-7.69A10,10,0,0,0,86.35,25.19Z"/><path class="cls-1" d="M73.8,6.42a4.17,4.17,0,0,0-1.51,3.36,4.73,4.73,0,0,0,.6,2.45,6.24,6.24,0,0,0,2,1.93,33,33,0,0,0,5,2.38l1.18.52V5.41a16.53,16.53,0,0,0-2.82-.26A6.73,6.73,0,0,0,73.8,6.42Z"/><path class="cls-1" d="M83.48,27.71a4.58,4.58,0,0,0-1.56-3.5,8,8,0,0,0-.88-.67v8.29a5.87,5.87,0,0,0,.74-.47A4.46,4.46,0,0,0,83.48,27.71Z"/><path class="cls-7" d="M76.51,32.71A22.35,22.35,0,0,1,71.24,32a27.62,27.62,0,0,1-5.34-1.86v5.69a23.36,23.36,0,0,0,10.21,1.93A21.27,21.27,0,0,0,81,37.25V31.83A9.82,9.82,0,0,1,76.51,32.71Z"/><g class="cls-8"><path class="cls-5" d="M87,7.22l1.91-4.91A26.56,26.56,0,0,0,81,.15V5.41A26.89,26.89,0,0,1,87,7.22Z"/><path class="cls-5" d="M88.56,23a9.26,9.26,0,0,0-2.77-3.29A23.27,23.27,0,0,0,81,17.06v6.48a8,8,0,0,1,.88.67,4.58,4.58,0,0,1,1.56,3.5,4.46,4.46,0,0,1-1.7,3.65,5.87,5.87,0,0,1-.74.47v5.42A12.42,12.42,0,0,0,85.89,35a9.25,9.25,0,0,0,3.55-7.69A10,10,0,0,0,88.56,23Z"/></g><path class="cls-7" d="M79.86,16.54a33,33,0,0,1-5-2.38,6.24,6.24,0,0,1-2-1.93,4.73,4.73,0,0,1-.6-2.45A4.17,4.17,0,0,1,73.8,6.42a6.73,6.73,0,0,1,4.42-1.27A16.53,16.53,0,0,1,81,5.41V.15A23.89,23.89,0,0,0,78.37,0q-5.5,0-8.77,2.64a8.8,8.8,0,0,0-3.27,7.24,9.89,9.89,0,0,0,2.06,6.29c1.37,1.74,3.74,3.29,7.09,4.65A31.56,31.56,0,0,1,81,23.54V17.06Z"/><rect class="cls-4" x="97.6" y="2.74" width="2.75" height="36.76"/><rect class="cls-5" x="99.81" y="0.53" width="2.75" height="36.76"/><rect class="cls-7" x="96.55" y="0.53" width="3.26" height="36.76"/><path class="cls-4" d="M127.26,7.36a21.33,21.33,0,0,1,9,2.06l2.11-5a27.45,27.45,0,0,0-10.91-2.21c-1,0-1.87,0-2.76.13V7.57A16.72,16.72,0,0,1,127.26,7.36Z"/><path class="cls-4" d="M125.09,19.56v5.15h7.62v9.48a28.85,28.85,0,0,1-6.23.73,15.38,15.38,0,0,1-1.83-.11V40l1,0a45.44,45.44,0,0,0,6.6-.45A39.15,39.15,0,0,0,138.62,38V19.56Z"/><path class="cls-1" d="M116.74,19q0,6.74,3.08,10.25a10.53,10.53,0,0,0,7,3.4V5.36a11.32,11.32,0,0,0-6.7,3.49C117.88,11.32,116.74,14.68,116.74,19Z"/><g class="cls-8"><path class="cls-5" d="M129.47,5.15a21.19,21.19,0,0,1,8.95,2.07l2.11-5A27.49,27.49,0,0,0,129.62,0c-1,0-1.87.05-2.76.13V5.36A16.72,16.72,0,0,1,129.47,5.15Z"/><path class="cls-5" d="M127.3,17.35V22.5h7.62V32a28.85,28.85,0,0,1-6.23.73,17.88,17.88,0,0,1-1.83-.1v5.16c.33,0,.66,0,1,0a45.44,45.44,0,0,0,6.6-.45,39.08,39.08,0,0,0,6.37-1.53V17.35Z"/></g><path class="cls-7" d="M119.82,29.21Q116.75,25.7,116.74,19c0-4.28,1.14-7.64,3.42-10.11a11.32,11.32,0,0,1,6.7-3.49V.13A18,18,0,0,0,115.56,5q-5.1,5-5.1,13.89T115,32.85q4.26,4.65,11.88,4.92V32.61A10.53,10.53,0,0,1,119.82,29.21Z"/><rect class="cls-4" x="43.5" y="17.82" width="13.65" height="5.03"/><rect class="cls-4" x="43.5" y="34.39" width="14.58" height="5.1"/><rect class="cls-4" x="44.88" y="2.74" width="13.2" height="5.08"/><rect class="cls-1" x="45.51" y="20.64" width="0.2" height="11.54"/><g class="cls-8"><rect class="cls-5" x="45.71" y="15.61" width="13.65" height="5.03"/><rect class="cls-5" x="45.71" y="32.18" width="14.58" height="5.1"/><rect class="cls-5" x="47.09" y="0.53" width="13.2" height="5.08"/></g><polygon class="cls-7" points="39.5 0.53 39.5 37.29 45.71 37.29 45.71 32.19 45.51 32.19 45.51 20.64 45.71 20.64 45.71 15.61 45.51 15.61 45.51 5.61 47.09 5.61 47.09 0.53 39.5 0.53"/><path class="cls-4" d="M172.57,2.74V22q0,2,.15,5.67c.1,2.42.16,3.82.2,4.21h-.15l-18-29.14h-6.56L162.36,26l8.35,13.53h7.36V2.74Z"/><path class="cls-5" d="M174.77.53V19.79c0,1.36.06,3.25.16,5.67s.16,3.82.2,4.21H175L157,.53h-6.57l14.18,23.23,8.35,13.53h7.37V.53Z"/><path class="cls-7" d="M149.66.53V37.29h5.45V18.18q0-3.87-.35-8.55L154.63,8h.21l9.72,15.76L150.38.53Z"/></g></g></g></svg>