<svg xmlns="http://www.w3.org/2000/svg" xmlns:xlink="http://www.w3.org/1999/xlink" viewBox="0 0 224.5 40"><defs><style>.cls-1,.cls-2{fill:none;}.cls-2{stroke:#7193bd;stroke-miterlimit:10;stroke-width:2px;}.cls-3,.cls-4{opacity:0.8;}.cls-4{fill:#990046;}.cls-5{fill:url(#Новый_образец_узора_1);}.cls-6{fill:#8aa1bd;}.cls-7{fill:url(#Новый_образец_узора_1-3);}.cls-8{opacity:0.83;}.cls-9{fill:url(#Новый_образец_узора_1-5);}.cls-10{fill:url(#Новый_образец_узора_1-7);}.cls-11{fill:url(#Новый_образец_узора_1-9);}</style><pattern id="Новый_образец_узора_1" data-name="Новый образец узора 1" width="7" height="7" patternTransform="translate(15.73 15.09) scale(0.56)" patternUnits="userSpaceOnUse" viewBox="0 0 7 7"><rect class="cls-1" width="7" height="7"/><line class="cls-2" x1="15.5" y1="5.5" x2="5.5" y2="15.5"/><line class="cls-2" x1="8.5" y1="5.5" x2="-1.5" y2="15.5"/><line class="cls-2" x1="1.5" y1="5.5" x2="-8.5" y2="15.5"/><line class="cls-2" x1="15.5" y1="-1.5" x2="5.5" y2="8.5"/><line class="cls-2" x1="8.5" y1="-1.5" x2="-1.5" y2="8.5"/><line class="cls-2" x1="1.5" y1="-1.5" x2="-8.5" y2="8.5"/><line class="cls-2" x1="15.5" y1="-8.5" x2="5.5" y2="1.5"/><line class="cls-2" x1="8.5" y1="-8.5" x2="-1.5" y2="1.5"/><line class="cls-2" x1="1.5" y1="-8.5" x2="-8.5" y2="1.5"/></pattern><pattern id="Новый_образец_узора_1-3" data-name="Новый образец узора 1" width="7" height="7" patternTransform="translate(15.06 15.09) scale(0.56)" patternUnits="userSpaceOnUse" viewBox="0 0 7 7"><rect class="cls-1" width="7" height="7"/><line class="cls-2" x1="15.5" y1="5.5" x2="5.5" y2="15.5"/><line class="cls-2" x1="8.5" y1="5.5" x2="-1.5" y2="15.5"/><line class="cls-2" x1="1.5" y1="5.5" x2="-8.5" y2="15.5"/><line class="cls-2" x1="15.5" y1="-1.5" x2="5.5" y2="8.5"/><line class="cls-2" x1="8.5" y1="-1.5" x2="-1.5" y2="8.5"/><line class="cls-2" x1="1.5" y1="-1.5" x2="-8.5" y2="8.5"/><line class="cls-2" x1="15.5" y1="-8.5" x2="5.5" y2="1.5"/><line class="cls-2" x1="8.5" y1="-8.5" x2="-1.5" y2="1.5"/><line class="cls-2" x1="1.5" y1="-8.5" x2="-8.5" y2="1.5"/></pattern><pattern id="Новый_образец_узора_1-5" data-name="Новый образец узора 1" width="7" height="7" patternTransform="translate(16.26 15.09) scale(0.56)" patternUnits="userSpaceOnUse" viewBox="0 0 7 7"><rect class="cls-1" width="7" height="7"/><line class="cls-2" x1="15.5" y1="5.5" x2="5.5" y2="15.5"/><line class="cls-2" x1="8.5" y1="5.5" x2="-1.5" y2="15.5"/><line class="cls-2" x1="1.5" y1="5.5" x2="-8.5" y2="15.5"/><line class="cls-2" x1="15.5" y1="-1.5" x2="5.5" y2="8.5"/><line class="cls-2" x1="8.5" y1="-1.5" x2="-1.5" y2="8.5"/><line class="cls-2" x1="1.5" y1="-1.5" x2="-8.5" y2="8.5"/><line class="cls-2" x1="15.5" y1="-8.5" x2="5.5" y2="1.5"/><line class="cls-2" x1="8.5" y1="-8.5" x2="-1.5" y2="1.5"/><line class="cls-2" x1="1.5" y1="-8.5" x2="-8.5" y2="1.5"/></pattern><pattern id="Новый_образец_узора_1-7" data-name="Новый образец узора 1" width="7" height="7" patternTransform="translate(15.49 15.09) scale(0.56)" patternUnits="userSpaceOnUse" viewBox="0 0 7 7"><rect class="cls-1" width="7" height="7"/><line class="cls-2" x1="15.5" y1="5.5" x2="5.5" y2="15.5"/><line class="cls-2" x1="8.5" y1="5.5" x2="-1.5" y2="15.5"/><line class="cls-2" x1="1.5" y1="5.5" x2="-8.5" y2="15.5"/><line class="cls-2" x1="15.5" y1="-1.5" x2="5.5" y2="8.5"/><line class="cls-2" x1="8.5" y1="-1.5" x2="-1.5" y2="8.5"/><line class="cls-2" x1="1.5" y1="-1.5" x2="-8.5" y2="8.5"/><line class="cls-2" x1="15.5" y1="-8.5" x2="5.5" y2="1.5"/><line class="cls-2" x1="8.5" y1="-8.5" x2="-1.5" y2="1.5"/><line class="cls-2" x1="1.5" y1="-8.5" x2="-8.5" y2="1.5"/></pattern><pattern id="Новый_образец_узора_1-9" data-name="Новый образец узора 1" width="7" height="7" patternTransform="translate(17.13 15.09) scale(0.56)" patternUnits="userSpaceOnUse" viewBox="0 0 7 7"><rect class="cls-1" width="7" height="7"/><line class="cls-2" x1="15.5" y1="5.5" x2="5.5" y2="15.5"/><line class="cls-2" x1="8.5" y1="5.5" x2="-1.5" y2="15.5"/><line class="cls-2" x1="1.5" y1="5.5" x2="-8.5" y2="15.5"/><line class="cls-2" x1="15.5" y1="-1.5" x2="5.5" y2="8.5"/><line class="cls-2" x1="8.5" y1="-1.5" x2="-1.5" y2="8.5"/><line class="cls-2" x1="1.5" y1="-1.5" x2="-8.5" y2="8.5"/><line class="cls-2" x1="15.5" y1="-8.5" x2="5.5" y2="1.5"/><line class="cls-2" x1="8.5" y1="-8.5" x2="-1.5" y2="1.5"/><line class="cls-2" x1="1.5" y1="-8.5" x2="-8.5" y2="1.5"/></pattern></defs><title>Ресурс 4</title><g id="Слой_2" data-name="Слой 2"><g id="Слой_1-2" data-name="Слой 1"><g class="cls-3"><path class="cls-4" d="M218.39,5.2a13.84,13.84,0,0,0-7.33-2.71V7.86a6.59,6.59,0,0,1,2.54,1.2,5.82,5.82,0,0,1,2,4.83A6,6,0,0,1,213.37,19c-1.48,1.1-3.79,1.65-7,1.65h-3.14v5.16h3.79q7.11,0,11-3.13t3.85-9Q221.9,8.08,218.39,5.2Z"/><path class="cls-5" d="M205.75,19V5.73H210a14.8,14.8,0,0,1,3.63.4V.76a29.42,29.42,0,0,0-3.22-.17H199.61V38.18h6.14V24.12h.12V19Z"/><path class="cls-6" d="M221,3.47A13.88,13.88,0,0,0,213.65.76V6.13a6.59,6.59,0,0,1,2.54,1.2,5.82,5.82,0,0,1,2,4.83A6,6,0,0,1,216,17.3C214.49,18.4,212.17,19,209,19h-3.15v5.17h3.79q7.13,0,11-3.14t3.86-9Q224.5,6.36,221,3.47Z"/><path class="cls-4" d="M28,20.81q0-8.68-4.94-13.47C20.19,4.52,16.25,3,11.3,2.62V7.77Q21.61,8.88,21.62,21q0,12-10.32,13.44v5.18q7.36-.69,11.62-4.73Q28,30,28,20.81Z"/><path class="cls-1" d="M23.85,18.78c0-8.1-3.45-12.5-10.32-13.24V32.21Q23.85,30.73,23.85,18.78Z"/><path class="cls-1" d="M6.08,5.41v27h4.33a21.87,21.87,0,0,0,3.12-.21V5.54a18.79,18.79,0,0,0-2.18-.13Z"/><path class="cls-6" d="M30.27,18.57q0-8.69-4.94-13.47Q21,.88,13.53.39V5.54c6.87.74,10.32,5.14,10.32,13.24S20.41,31.22,13.53,32.21v5.18q7.37-.68,11.62-4.73Q30.27,27.79,30.27,18.57Z"/><path class="cls-7" d="M10.41,32.42H6.08v-27h5.27a18.79,18.79,0,0,1,2.18.13V.39c-.66,0-1.33-.07-2-.07H0V37.54H10.41a31.22,31.22,0,0,0,3.12-.15V32.21A21.87,21.87,0,0,1,10.41,32.42Z"/><rect class="cls-4" x="105" y="17.83" width="13.82" height="5.09"/><rect class="cls-4" x="105" y="34.61" width="14.77" height="5.17"/><rect class="cls-4" x="106.4" y="2.55" width="13.37" height="5.14"/><rect class="cls-1" x="107.03" y="20.68" width="0.2" height="11.68"/><g class="cls-8"><rect class="cls-6" x="107.24" y="15.59" width="13.82" height="5.09"/><rect class="cls-6" x="107.24" y="32.37" width="14.77" height="5.17"/><rect class="cls-6" x="108.63" y="0.32" width="13.37" height="5.14"/></g><polygon class="cls-9" points="100.95 0.32 100.95 37.54 107.24 37.54 107.24 32.37 107.03 32.37 107.03 20.68 107.24 20.68 107.24 15.59 107.03 15.59 107.03 5.46 108.63 5.46 108.63 0.32 100.95 0.32"/><rect class="cls-4" x="42.75" y="17.83" width="13.82" height="5.09"/><rect class="cls-4" x="42.75" y="34.61" width="14.77" height="5.17"/><rect class="cls-4" x="44.14" y="2.55" width="13.37" height="5.14"/><rect class="cls-1" x="44.78" y="20.68" width="0.2" height="11.68"/><g class="cls-8"><rect class="cls-6" x="44.98" y="15.59" width="13.82" height="5.09"/><rect class="cls-6" x="44.98" y="32.37" width="14.77" height="5.17"/><rect class="cls-6" x="46.38" y="0.32" width="13.37" height="5.14"/></g><polygon class="cls-10" points="38.7 0.32 38.7 37.54 44.98 37.54 44.98 32.37 44.78 32.37 44.78 20.68 44.98 20.68 44.98 15.59 44.78 15.59 44.78 5.46 46.38 5.46 46.38 0.32 38.7 0.32"/><path class="cls-4" d="M93.09,2.32H86.71L78.87,25.59c-.29.82-.67,2.09-1.13,3.8-.41,1.54-.73,2.9-.95,4.1l2,6.42h1.13Z"/><path class="cls-11" d="M79.31,32.19c-.14-.86-.44-2.17-.9-3.92s-.9-3.19-1.31-4.31L69.25.59H62.93L76,38.18h5.35l-2-6.42C79.36,31.9,79.33,32.05,79.31,32.19Z"/><path class="cls-6" d="M95.68.59H89.31L81.47,23.86c-.3.82-.67,2.09-1.13,3.8-.42,1.54-.73,2.9-1,4.1l2,6.42h1.13Z"/><rect class="cls-4" x="133.89" y="34.64" width="15.61" height="5.27"/><polygon class="cls-11" points="136.18 32.91 136.18 0.59 130.03 0.59 130.03 38.18 136.49 38.18 136.49 32.91 136.18 32.91"/><rect class="cls-6" x="136.49" y="32.91" width="15.61" height="5.27"/><path class="cls-4" d="M176.26,2.14V7.75a8.64,8.64,0,0,1,3.79,2.82q2.76,3.59,2.77,10.49T180,31.63a8.76,8.76,0,0,1-3.77,2.78V40a15.06,15.06,0,0,0,8.5-4.67q4.59-5.08,4.59-14.27T184.77,6.79A15.12,15.12,0,0,0,176.26,2.14Z"/><path class="cls-11" d="M174.35,33.45q-5.49,0-8.3-3.59t-2.8-10.53q0-6.91,2.81-10.49t8.35-3.57a12.23,12.23,0,0,1,4.44.75V.41A23.11,23.11,0,0,0,174.41,0q-8.52,0-13.1,5t-4.59,14.29q0,9.31,4.56,14.36t13.07,5a22.79,22.79,0,0,0,4.5-.42V32.68A12.3,12.3,0,0,1,174.35,33.45Z"/><path class="cls-6" d="M178.85.41V6a8.74,8.74,0,0,1,3.8,2.82q2.76,3.59,2.76,10.49T182.62,29.9a8.76,8.76,0,0,1-3.77,2.78v5.59a15,15,0,0,0,8.5-4.67q4.59-5.09,4.59-14.27T187.36,5.06A15.06,15.06,0,0,0,178.85.41Z"/></g></g></g></svg>