<svg xmlns="http://www.w3.org/2000/svg" xmlns:xlink="http://www.w3.org/1999/xlink" viewBox="0 0 208.61 40"><defs><style>.cls-1,.cls-2{fill:none;}.cls-2{stroke:#7193bd;stroke-miterlimit:10;stroke-width:2px;}.cls-3,.cls-4{opacity:0.8;}.cls-4{fill:#990046;}.cls-5{fill:url(#Новый_образец_узора_1);}.cls-6{opacity:0.83;}.cls-7{fill:#8aa1bd;}.cls-8{fill:url(#Новый_образец_узора_1-5);}</style><pattern id="Новый_образец_узора_1" data-name="Новый образец узора 1" width="7" height="7" patternTransform="translate(15.86 16.72) scale(0.56)" patternUnits="userSpaceOnUse" viewBox="0 0 7 7"><rect class="cls-1" width="7" height="7"/><line class="cls-2" x1="15.5" y1="5.5" x2="5.5" y2="15.5"/><line class="cls-2" x1="8.5" y1="5.5" x2="-1.5" y2="15.5"/><line class="cls-2" x1="1.5" y1="5.5" x2="-8.5" y2="15.5"/><line class="cls-2" x1="15.5" y1="-1.5" x2="5.5" y2="8.5"/><line class="cls-2" x1="8.5" y1="-1.5" x2="-1.5" y2="8.5"/><line class="cls-2" x1="1.5" y1="-1.5" x2="-8.5" y2="8.5"/><line class="cls-2" x1="15.5" y1="-8.5" x2="5.5" y2="1.5"/><line class="cls-2" x1="8.5" y1="-8.5" x2="-1.5" y2="1.5"/><line class="cls-2" x1="1.5" y1="-8.5" x2="-8.5" y2="1.5"/></pattern><pattern id="Новый_образец_узора_1-5" data-name="Новый образец узора 1" width="7" height="7" patternTransform="translate(18.4 16.72) scale(0.56)" patternUnits="userSpaceOnUse" viewBox="0 0 7 7"><rect class="cls-1" width="7" height="7"/><line class="cls-2" x1="15.5" y1="5.5" x2="5.5" y2="15.5"/><line class="cls-2" x1="8.5" y1="5.5" x2="-1.5" y2="15.5"/><line class="cls-2" x1="1.5" y1="5.5" x2="-8.5" y2="15.5"/><line class="cls-2" x1="15.5" y1="-1.5" x2="5.5" y2="8.5"/><line class="cls-2" x1="8.5" y1="-1.5" x2="-1.5" y2="8.5"/><line class="cls-2" x1="1.5" y1="-1.5" x2="-8.5" y2="8.5"/><line class="cls-2" x1="15.5" y1="-8.5" x2="5.5" y2="1.5"/><line class="cls-2" x1="8.5" y1="-8.5" x2="-1.5" y2="1.5"/><line class="cls-2" x1="1.5" y1="-8.5" x2="-8.5" y2="1.5"/></pattern></defs><title>Ресурс 5</title><g id="Слой_2" data-name="Слой 2"><g id="Слой_1-2" data-name="Слой 1"><g class="cls-3"><path class="cls-4" d="M167,9.5l1.92-4.94A26.67,26.67,0,0,0,161,2.38v5.3A28,28,0,0,1,167,9.5Z"/><path class="cls-4" d="M168.58,25.4a9.38,9.38,0,0,0-2.78-3.32A24.48,24.48,0,0,0,161,19.43V26a7.73,7.73,0,0,1,.88.68,4.59,4.59,0,0,1,1.57,3.52,4.48,4.48,0,0,1-1.71,3.68,4.24,4.24,0,0,1-.74.47v5.47a12.48,12.48,0,0,0,4.89-2.27,9.32,9.32,0,0,0,3.57-7.75A9.91,9.91,0,0,0,168.58,25.4Z"/><path class="cls-1" d="M155.93,6.48a4.18,4.18,0,0,0-1.52,3.38,4.85,4.85,0,0,0,.6,2.48,6.35,6.35,0,0,0,2,1.94,33.84,33.84,0,0,0,5,2.41c.42.17.81.34,1.19.51V5.46a16.85,16.85,0,0,0-2.84-.26A6.78,6.78,0,0,0,155.93,6.48Z"/><path class="cls-1" d="M165.69,27.94a4.59,4.59,0,0,0-1.57-3.52,8.19,8.19,0,0,0-.89-.68V32.1a5.07,5.07,0,0,0,.75-.48A4.47,4.47,0,0,0,165.69,27.94Z"/><path class="cls-5" d="M158.67,33a23.29,23.29,0,0,1-5.32-.68A28.6,28.6,0,0,1,148,30.43v5.73a23.62,23.62,0,0,0,10.3,2,21.12,21.12,0,0,0,5-.55V32.1A9.79,9.79,0,0,1,158.67,33Z"/><g class="cls-6"><path class="cls-7" d="M169.21,7.28l1.93-4.95A26.73,26.73,0,0,0,163.23.15V5.46A27.15,27.15,0,0,1,169.21,7.28Z"/><path class="cls-7" d="M170.81,23.18A9.34,9.34,0,0,0,168,19.85a23.89,23.89,0,0,0-4.79-2.65v6.54a8.19,8.19,0,0,1,.89.68,4.59,4.59,0,0,1,1.57,3.52A4.47,4.47,0,0,1,164,31.62a5.07,5.07,0,0,1-.75.48v5.46a12.55,12.55,0,0,0,4.89-2.26,9.33,9.33,0,0,0,3.58-7.76A10,10,0,0,0,170.81,23.18Z"/></g><path class="cls-5" d="M162,16.69a33.84,33.84,0,0,1-5-2.41,6.35,6.35,0,0,1-2-1.94,4.85,4.85,0,0,1-.6-2.48,4.18,4.18,0,0,1,1.52-3.38,6.78,6.78,0,0,1,4.46-1.28,16.85,16.85,0,0,1,2.84.26V.15A24.12,24.12,0,0,0,160.54,0Q155,0,151.69,2.66A8.88,8.88,0,0,0,148.4,10a9.93,9.93,0,0,0,2.08,6.34c1.38,1.75,3.76,3.32,7.15,4.69a31.66,31.66,0,0,1,5.6,2.74V17.2C162.85,17,162.46,16.86,162,16.69Z"/><rect class="cls-4" x="135.15" y="2.76" width="2.77" height="37.07"/><rect class="cls-7" x="137.38" y="0.53" width="2.77" height="37.07"/><rect class="cls-8" x="134.09" y="0.53" width="3.29" height="37.07"/><path class="cls-4" d="M52.91,26.16q0,6.37-4.26,8.27V40a14.78,14.78,0,0,0,3.45-1.2A11.84,11.84,0,0,0,57.25,34,14.31,14.31,0,0,0,59,26.75V2.53H52.91Z"/><path class="cls-8" d="M46.84,33.53c-3,0-5.18-.73-6.61-2.2s-2.15-3.75-2.15-6.84V.8H31.93V24.93q0,6.45,3.87,10.14t10.83,3.69a21.46,21.46,0,0,0,4.61-.48V32.71A10.77,10.77,0,0,1,46.84,33.53Z"/><path class="cls-7" d="M55.49,24.44q0,6.38-4.25,8.27v5.57a15.61,15.61,0,0,0,3.45-1.2,11.87,11.87,0,0,0,5.14-4.79A14.31,14.31,0,0,0,61.61,25V.8H55.49Z"/><path class="cls-4" d="M87.79,20.35v-.26a7.46,7.46,0,0,0,4.86-2.74,8.6,8.6,0,0,0,1.69-5.45c0-3.24-1.14-5.62-3.44-7.12q-3-1.93-9.09-2.21V7.71a9.57,9.57,0,0,1,4.28,1.12A4.12,4.12,0,0,1,88,12.64a4.68,4.68,0,0,1-1.76,4.14A8.75,8.75,0,0,1,81.81,18v5A9.76,9.76,0,0,1,87,24.37a4.92,4.92,0,0,1,2,4.33,5.42,5.42,0,0,1-2,4.65,9.1,9.1,0,0,1-5.22,1.45V40h.32q6.27,0,9.79-2.86a9.61,9.61,0,0,0,3.53-7.9,8.87,8.87,0,0,0-1.86-5.93A9.69,9.69,0,0,0,87.79,20.35Z"/><path class="cls-8" d="M83.82,33.1H77.31V21.24h6.2l.88,0v-5c-.38,0-.77,0-1.19,0H77.31V5.93h5.3c.64,0,1.23,0,1.78.06V.85c-.66,0-1.36,0-2.08,0H71.19V38.24h13.2V33.08Z"/><path class="cls-7" d="M90.37,18.63v-.26a7.55,7.55,0,0,0,4.87-2.74,8.66,8.66,0,0,0,1.69-5.45q0-4.87-3.45-7.12-3-1.93-9.09-2.21V6A9.72,9.72,0,0,1,88.67,7.1a4.16,4.16,0,0,1,1.91,3.82,4.67,4.67,0,0,1-1.77,4.14,8.93,8.93,0,0,1-4.42,1.18v5a9.68,9.68,0,0,1,5.19,1.39,4.94,4.94,0,0,1,2,4.33,5.44,5.44,0,0,1-2,4.64,9.06,9.06,0,0,1-5.23,1.46v5.16h.32q6.29,0,9.8-2.85A9.63,9.63,0,0,0,98,27.49a8.87,8.87,0,0,0-1.86-5.93A9.63,9.63,0,0,0,90.37,18.63Z"/><rect class="cls-4" x="109.37" y="34.72" width="15.83" height="5.25"/><polygon class="cls-8" points="111.93 32.99 111.93 0.8 105.81 0.8 105.81 38.24 111.95 38.24 111.95 32.99 111.93 32.99"/><rect class="cls-7" x="111.95" y="32.99" width="15.83" height="5.25"/><polygon class="cls-4" points="199.88 2.53 199.88 17.84 186.88 17.84 186.88 23.09 199.88 23.09 199.88 39.97 206.02 39.97 206.02 2.53 199.88 2.53"/><polygon class="cls-8" points="185.2 16.12 185.2 0.8 179.08 0.8 179.08 38.24 185.2 38.24 185.2 21.37 189.46 21.37 189.46 16.12 185.2 16.12"/><polygon class="cls-7" points="202.46 0.8 202.46 16.12 189.46 16.12 189.46 21.37 202.46 21.37 202.46 38.24 208.61 38.24 208.61 0.8 202.46 0.8"/><path class="cls-4" d="M18.71,5.39a13.76,13.76,0,0,0-7.3-2.69V8a6.64,6.64,0,0,1,2.52,1.2,5.79,5.79,0,0,1,2,4.81,6,6,0,0,1-2.21,5.12c-1.47,1.1-3.77,1.64-6.91,1.64H3.65V26H7.43q7.1,0,10.93-3.13t3.85-9C22.21,10.12,21,7.31,18.71,5.39Z"/><path class="cls-8" d="M6.12,19.09V5.93h4.25A14.81,14.81,0,0,1,14,6.32V1A27,27,0,0,0,10.78.8H0V38.24H6.12v-14h.12V19.09Z"/><path class="cls-7" d="M21.29,3.67A13.76,13.76,0,0,0,14,1V6.32a6.68,6.68,0,0,1,2.53,1.19,5.84,5.84,0,0,1,2,4.82,6,6,0,0,1-2.2,5.12q-2.2,1.64-6.92,1.64H6.24v5.15H10q7.1,0,10.94-3.13t3.84-9Q24.79,6.54,21.29,3.67Z"/></g></g></g></svg>