<svg xmlns="http://www.w3.org/2000/svg" viewBox="0 0 26.35 25.7"><defs><style>.cls-1{fill:#fff;fill-rule:evenodd;}</style></defs><title>Ресурс 6</title><g id="Слой_2" data-name="Слой 2"><g id="Слой_1-2" data-name="Слой 1"><path class="cls-1" d="M13.17,0A13.18,13.18,0,0,0,9,25.68c.66.12.9-.29.9-.64s0-1.14,0-2.24C6.23,23.6,5.45,21,5.45,21A3.47,3.47,0,0,0,4,19.11c-1.2-.82.09-.8.09-.8a2.77,2.77,0,0,1,2,1.35,2.79,2.79,0,0,0,3.83,1.1A2.8,2.8,0,0,1,10.77,19c-2.93-.34-6-1.47-6-6.51A5.11,5.11,0,0,1,6.12,9a4.81,4.81,0,0,1,.13-3.49s1.11-.35,3.63,1.35a12.56,12.56,0,0,1,6.59,0c2.52-1.7,3.62-1.35,3.62-1.35A4.7,4.7,0,0,1,20.22,9a5.07,5.07,0,0,1,1.36,3.54c0,5.06-3.08,6.17-6,6.5a3.11,3.11,0,0,1,.9,2.44c0,1.76,0,3.18,0,3.61s.24.76.91.63A13.17,13.17,0,0,0,13.17,0Z"/></g></g></svg>